<svg version="1.1" id="Layer_1" xmlns="http://www.w3.org/2000/svg" xmlns:xlink="http://www.w3.org/1999/xlink" x="0px" y="0px"
	 width="100%" viewBox="0 0 1080 1080" enable-background="new 0 0 1080 1080" xml:space="preserve">

<path fill="#F97316" opacity="1.000000" stroke="none" 
	d="
M822.884827,140.727142 
	C840.191162,140.686981 857.500305,140.434128 874.803223,140.658051 
	C898.888062,140.969727 918.653748,157.112274 923.395752,180.745316 
	C924.852295,188.004272 924.657227,195.638870 924.792053,203.109161 
	C925.038452,216.754669 924.966858,230.405899 925.029297,244.982941 
	C925.047058,258.990631 925.002502,272.070587 925.098083,285.149475 
	C925.180237,296.395447 925.422546,307.640228 925.471558,319.344604 
	C925.626160,341.091370 925.903137,362.379120 926.122742,384.153320 
	C926.079773,402.695831 926.094055,420.751801 926.098389,439.288391 
	C926.434021,468.220398 926.779602,496.671844 927.050171,525.575317 
	C927.339722,598.169800 927.648743,670.312561 928.095642,742.454468 
	C928.277283,771.772400 928.758728,801.088440 929.103760,830.405334 
	C928.949097,839.705688 929.759399,849.143616 928.457581,858.280518 
	C924.655212,884.966187 904.582886,902.114075 877.368408,902.713562 
	C863.905579,903.010132 850.434875,902.944763 836.039917,903.038696 
	C813.086914,903.163452 791.061707,903.292603 768.575073,903.327698 
	C751.150513,903.518555 734.187500,903.803467 716.743286,904.045776 
	C700.441223,904.049438 684.620239,904.095703 668.351440,904.110596 
	C664.304321,904.124268 660.705078,904.169250 656.635620,904.141602 
	C549.414368,904.747375 442.663177,905.391052 335.912628,906.125549 
	C304.940277,906.338623 273.969727,906.811646 242.998352,907.165527 
	C233.862610,907.113525 224.726898,907.056213 215.591125,907.010376 
	C190.207809,906.882935 167.703125,885.081909 166.864059,859.744568 
	C166.600143,851.775330 166.480103,843.801331 166.281952,834.950195 
	C166.115036,810.529663 165.960403,786.988281 165.874542,762.954590 
	C165.853882,744.391663 165.764435,726.321167 165.755157,707.772827 
	C165.553543,688.296448 165.271759,669.297974 165.019775,649.812744 
	C164.974030,639.209290 164.898499,629.092468 164.891098,618.513000 
	C164.762100,587.419067 164.551834,556.787903 164.370392,526.156555 
	C163.889145,444.915314 163.428223,363.673950 162.937744,282.432800 
	C162.868439,270.953156 162.679199,259.474213 162.545471,247.994965 
	C162.413818,230.843475 162.205704,213.692139 162.170959,196.540451 
	C162.132538,177.570908 170.133423,162.804718 186.109467,152.617279 
	C193.789413,147.719986 202.249680,144.895920 211.555878,144.935760 
	C224.051605,144.989243 236.548233,144.832718 249.962372,144.758148 
	C275.271210,144.444977 299.662170,144.139969 324.514465,143.898972 
	C349.313812,143.901306 373.651794,143.839661 398.455994,143.831039 
	C420.947571,143.561218 442.972961,143.238373 465.466370,142.942810 
	C473.248047,142.979446 480.561890,143.033920 487.875153,142.989563 
	C508.644867,142.863525 529.414307,142.697144 550.629883,142.639145 
	C563.566528,142.573227 576.056763,142.343826 588.547852,142.268021 
	C664.499451,141.806992 740.451294,141.382431 816.402954,140.935760 
	C818.563904,140.923050 820.724243,140.799179 822.884827,140.727142 
M299.133789,506.753448 
	C300.151550,507.386749 301.814240,507.819885 302.083008,508.685669 
	C303.905884,514.558411 305.441437,520.520508 307.057098,526.457214 
	C314.262207,552.932678 321.429382,579.418579 328.750610,605.861816 
	C329.180481,607.414490 330.809784,609.787415 331.933258,609.817383 
	C343.064362,610.114258 354.206451,609.997131 365.620422,609.997131 
	C377.894775,556.256958 390.098022,502.828033 402.462280,448.694183 
	C392.523712,448.694183 383.237579,448.597260 373.959900,448.833099 
	C372.951355,448.858734 371.446747,450.655365 371.106903,451.888184 
	C369.871185,456.371002 369.027222,460.962189 368.045471,465.514648 
	C361.348694,496.568756 354.671417,527.627075 347.896088,558.664062 
	C347.632477,559.871582 346.437347,560.875732 345.676239,561.974609 
	C345.037109,560.946594 344.299133,559.964783 343.789734,558.876038 
	C343.372864,557.985107 343.216064,556.969849 342.964844,556.004333 
	C334.003387,521.562500 325.002991,487.130615 316.159119,452.658569 
	C315.402527,449.709412 314.327148,448.510376 311.182892,448.616943 
	C304.525818,448.842682 297.853882,448.778473 291.192078,448.639862 
	C288.590698,448.585724 287.430664,449.359619 286.804199,452.065582 
	C284.741852,460.974243 282.304871,469.795746 280.048004,478.659882 
	C273.319183,505.088684 266.624542,531.526184 259.846893,557.942444 
	C259.442535,559.518433 258.427094,560.937622 257.695984,562.429810 
	C257.186493,562.292480 256.677002,562.155151 256.167511,562.017822 
	C248.024124,524.250610 239.880737,486.483398 231.811188,449.058655 
	C220.765045,449.058655 210.522629,449.058655 199.949203,449.058655 
	C212.299591,502.943237 224.551559,556.398438 236.774612,609.727417 
	C249.050522,609.727417 260.832245,609.727417 272.636383,609.727417 
	C281.442413,575.492188 290.183563,541.509033 299.133789,506.753448 
M448.704926,607.865051 
	C462.690796,612.992126 477.077271,613.584717 491.510193,610.765686 
	C507.253601,607.690613 518.239929,598.218201 525.601379,583.645691 
	C519.001892,579.396851 512.803467,575.239624 506.387482,571.451050 
	C505.400177,570.867981 502.549561,571.475342 502.017181,572.384827 
	C495.196594,584.036194 484.507050,586.829102 472.063354,586.145569 
	C455.876495,585.256348 444.906250,572.800293 446.087646,556.033386 
	C447.864685,556.033386 449.672943,556.033386 451.481201,556.033386 
	C474.466034,556.033142 497.451111,555.974854 520.435364,556.089050 
	C524.323242,556.108398 526.391052,555.120850 526.230774,550.797241 
	C525.953735,543.324280 526.617798,535.763611 525.738403,528.376465 
	C523.799500,512.089905 516.555115,498.919983 501.145813,491.477692 
	C490.494507,486.333466 479.083984,485.480103 467.490631,486.107208 
	C444.490936,487.351288 425.914825,500.943146 418.316162,522.397644 
	C413.428284,536.198425 412.886993,550.482544 415.370972,564.786072 
	C418.810760,584.593323 428.744415,599.691833 448.704926,607.865051 
M586.745605,538.219177 
	C578.820435,540.653931 570.721802,542.645264 563.022827,545.658020 
	C556.388672,548.254089 551.231689,553.093567 547.991333,559.666382 
	C537.340576,581.270508 549.401672,606.998108 572.943909,611.285522 
	C590.163879,614.421631 606.022705,611.917603 615.763062,594.689819 
	C616.046692,594.188232 616.698486,593.894653 617.810181,592.990234 
	C618.668762,594.765930 619.101746,596.351440 620.056030,597.506226 
	C622.970642,601.033386 625.460266,605.562622 629.246277,607.590454 
	C638.674622,612.640320 648.848572,611.944824 658.779907,608.404968 
	C659.778992,608.048889 661.148071,606.603455 661.090698,605.747681 
	C660.640503,599.028259 659.884155,592.329407 659.226501,585.667358 
	C646.096252,586.679993 645.093811,585.729919 645.078857,573.242920 
	C645.058411,556.081116 645.229553,538.915771 644.930908,521.758606 
	C644.644348,505.294037 635.972778,492.859863 620.754089,488.985931 
	C611.873657,486.725372 602.304565,485.901550 593.132751,486.325195 
	C575.374084,487.145477 560.024780,494.220123 547.499878,507.712341 
	C550.999695,513.001465 554.379028,518.123291 557.773987,523.234863 
	C561.101685,528.245300 561.078491,528.208008 565.398315,524.220703 
	C576.244385,514.209717 588.865967,509.267303 603.755493,511.018127 
	C610.384216,511.797607 614.396851,515.183777 615.097412,520.399963 
	C615.984253,527.002869 613.863525,531.059204 606.934326,533.388733 
	C600.667908,535.495483 594.055481,536.572937 586.745605,538.219177 
M748.893982,600.430115 
	C762.609985,563.195007 776.325928,525.959839 790.256104,488.143127 
	C781.473633,488.143127 773.346375,488.406158 765.247375,488.041748 
	C760.597656,487.832520 758.396606,489.110840 756.803528,493.840912 
	C748.050598,519.829407 738.851135,545.667786 729.734375,571.532837 
	C729.291504,572.789246 728.182129,573.810791 727.383057,574.941650 
	C726.574280,573.841980 725.447327,572.856201 725.006653,571.624817 
	C721.254395,561.140259 717.630859,550.609619 713.961060,540.095520 
	C707.938904,522.842285 701.911072,505.591095 695.910583,488.410431 
	C685.176941,488.410431 674.775879,488.410431 664.384094,488.410431 
	C664.346436,489.000916 664.217651,489.364746 664.320435,489.643097 
	C678.828491,528.935974 693.329163,568.231567 707.994385,607.465759 
	C708.434326,608.642761 710.585876,609.852173 711.972717,609.892151 
	C719.959839,610.122314 727.957031,610.004395 735.950806,610.004395 
	C745.250244,610.004395 745.250244,610.004395 748.893982,600.430115 
M885.451965,498.088440 
	C885.101562,495.009827 889.441650,491.236023 883.576782,488.968872 
	C868.710754,483.222198 852.073853,488.817261 844.109558,502.515747 
	C843.291382,503.923004 842.273621,505.214172 841.348450,506.559204 
	C840.885376,506.413879 840.422241,506.268555 839.959167,506.123230 
	C839.959167,500.271698 839.959167,494.420166 839.959167,488.405823 
	C829.652771,488.405823 820.076782,488.405823 810.360474,488.405823 
	C810.360474,529.036011 810.360474,569.401978 810.360474,609.652100 
	C820.620239,609.652100 830.525330,609.652100 840.771362,609.652100 
	C840.771362,607.495667 840.770203,605.688843 840.771545,603.882080 
	C840.785095,586.051941 840.618835,568.218750 840.916809,550.393311 
	C841.013245,544.623718 841.728638,538.714539 843.213806,533.150330 
	C846.020630,522.634338 853.037781,516.199707 864.170349,515.491211 
	C868.394897,515.222412 872.764954,516.023743 876.958374,516.878357 
	C880.142212,517.527283 881.959351,517.422485 882.473022,513.616516 
	C883.139587,508.677856 884.291809,503.804688 885.451965,498.088440 
z"/>
<path fill="#3C82F5" opacity="1.000000" stroke="none" 
	d="
M243.034698,907.542114 
	C273.969727,906.811646 304.940277,906.338623 335.912628,906.125549 
	C442.663177,905.391052 549.414368,904.747375 656.347107,904.376404 
	C620.058594,914.618164 583.588318,924.552429 547.118103,934.487061 
	C494.329773,948.866760 441.534637,963.221619 388.759399,977.649292 
	C379.040344,980.306396 369.402039,983.258972 359.726471,986.075195 
	C348.687378,988.910095 337.550659,991.416443 326.633575,994.661743 
	C312.514252,998.858948 298.612091,1000.251587 284.917664,993.542358 
	C270.349640,986.405212 261.095978,974.920532 256.968628,959.160706 
	C252.485138,942.041016 247.715759,924.996216 243.034698,907.542114 
z"/>
<path fill="#3C82F5" opacity="1.000000" stroke="none" 
	d="
M162.202652,248.091904 
	C162.679199,259.474213 162.868439,270.953156 162.937744,282.432800 
	C163.428223,363.673950 163.889145,444.915314 164.370392,526.156555 
	C164.551834,556.787903 164.762100,587.419067 164.647308,618.243286 
	C157.028442,591.579712 149.726135,564.721924 142.413544,537.866882 
	C129.440887,490.225616 116.498245,442.576111 103.460571,394.952576 
	C100.144035,382.838043 96.517334,370.808441 93.033157,358.739807 
	C90.113998,347.362213 87.653511,335.842712 84.185478,324.634979 
	C75.481285,296.505310 90.988838,270.331329 113.573349,261.897552 
	C124.712875,257.737732 136.477707,255.250427 147.964096,252.022354 
	C152.589798,250.722382 157.227554,249.465378 162.202652,248.091904 
z"/>
<path fill="#15B8A6" opacity="1.000000" stroke="none" 
	d="
M927.125183,525.123291 
	C926.779602,496.671844 926.434021,468.220398 926.401978,439.459167 
	C937.174011,457.033264 947.654053,474.904663 958.086731,492.803619 
	C978.537964,527.890808 998.962891,562.993347 1019.398682,598.089539 
	C1025.613647,608.894836 1031.831421,619.698608 1038.042969,630.505859 
	C1052.403442,655.491028 1045.096680,684.929993 1020.464966,700.096558 
	C1007.871582,707.850647 994.937195,715.050964 981.687439,722.432373 
	C968.137451,674.450745 955.077026,626.532715 941.965942,578.628601 
	C937.080017,560.776794 932.075562,542.957458 927.125183,525.123291 
z"/>
<path fill="#F9CC16" opacity="1.000000" stroke="none" 
	d="
M668.799316,904.141968 
	C684.620239,904.095703 700.441223,904.049438 716.589111,904.349609 
	C695.286011,926.658325 673.627136,948.592346 652.035889,970.592834 
	C637.224426,985.685181 622.506897,1000.869751 607.747314,1016.013062 
	C598.214050,1025.508057 588.664978,1034.987183 579.151001,1044.501465 
	C558.791077,1064.861816 528.435852,1065.315430 507.680725,1045.417847 
	C497.724243,1035.872681 487.977356,1026.108765 478.135559,1015.871521 
	C523.098877,989.177063 568.078186,963.082703 613.017578,936.919739 
	C631.655396,926.069153 650.208008,915.072327 668.799316,904.141968 
z"/>
<path fill="#15B8A6" opacity="1.000000" stroke="none" 
	d="
M668.351440,904.110596 
	C650.208008,915.072327 631.655396,926.069153 613.017578,936.919739 
	C568.078186,963.082703 523.098877,989.177063 477.935028,1015.585754 
	C467.810272,1021.515381 457.853851,1027.102539 447.968048,1032.812012 
	C420.720703,1048.548462 391.583984,1040.964478 375.613647,1013.871094 
	C370.315002,1004.881897 365.158875,995.808777 359.832031,986.424622 
	C369.402039,983.258972 379.040344,980.306396 388.759399,977.649292 
	C441.534637,963.221619 494.329773,948.866760 547.118103,934.487061 
	C583.588318,924.552429 620.058594,914.618164 656.817383,904.448975 
	C660.705078,904.169250 664.304321,904.124268 668.351440,904.110596 
z"/>
<path fill="#15B8A6" opacity="1.000000" stroke="none" 
	d="
M92.684860,358.859924 
	C96.517334,370.808441 100.144035,382.838043 103.460571,394.952576 
	C116.498245,442.576111 129.440887,490.225616 142.413544,537.866882 
	C149.726135,564.721924 157.028442,591.579712 164.579193,618.705933 
	C164.898499,629.092468 164.974030,639.209290 164.689911,649.670532 
	C146.960938,620.183411 129.598328,590.347900 112.220215,560.521362 
	C96.765930,533.996765 81.294426,507.482178 65.830521,480.963165 
	C59.128639,469.298340 52.440952,457.625366 45.722019,445.970367 
	C30.787178,420.063690 38.553616,390.364899 64.294373,375.213623 
	C73.602058,369.734955 82.986908,364.387421 92.684860,358.859924 
z"/>
<path fill="#F9CC16" opacity="1.000000" stroke="none" 
	d="
M65.519272,481.171326 
	C81.294426,507.482178 96.765930,533.996765 112.220215,560.521362 
	C129.598328,590.347900 146.960938,620.183411 164.660126,650.157227 
	C165.271759,669.297974 165.553543,688.296448 165.488998,707.589905 
	C142.673798,685.715759 120.234261,663.516907 97.724411,641.389526 
	C85.292397,629.168701 72.742386,617.067932 60.245567,604.913025 
	C52.272667,596.890198 44.287254,588.879822 36.329357,580.842163 
	C17.992226,562.321167 17.204046,531.554443 34.886665,512.496948 
	C44.734310,501.883698 55.084381,491.736633 65.519272,481.171326 
z"/>
<path fill="#15B8A6" opacity="1.000000" stroke="none" 
	d="
M550.183899,142.546661 
	C529.414307,142.697144 508.644867,142.863525 487.875153,142.989563 
	C480.561890,143.033920 473.248047,142.979446 465.601562,142.631073 
	C489.669098,128.126511 514.092163,113.999916 538.462952,99.783585 
	C559.373718,87.585587 580.224670,75.284927 601.102051,63.029663 
	C613.035278,56.218361 624.931824,49.341892 636.909607,42.609921 
	C658.799805,30.306862 683.228088,33.703678 700.151184,51.536240 
	C703.089966,54.632912 705.565552,58.268078 707.766968,61.946644 
	C713.978638,72.326126 719.936462,82.857544 725.836670,93.935837 
	C706.823975,99.725220 687.975098,104.930382 669.112671,110.085823 
	C629.473511,120.919945 589.827271,131.727936 550.183899,142.546661 
z"/>
<path fill="#F9CC16" opacity="1.000000" stroke="none" 
	d="
M1019.646790,597.820190 
	C998.962891,562.993347 978.537964,527.890808 958.086731,492.803619 
	C947.654053,474.904663 937.174011,457.033264 926.411865,438.978577 
	C926.094055,420.751801 926.079773,402.695831 926.421021,384.319397 
	C935.931152,392.961212 945.087646,401.921417 954.239685,410.886047 
	C974.796143,431.021423 995.350403,451.158997 1015.905518,471.295654 
	C1025.413574,480.822906 1034.912109,490.359467 1044.431519,499.875336 
	C1064.142334,519.578735 1065.262207,549.294739 1046.653198,570.006531 
	C1038.104492,579.521118 1028.836548,588.389465 1019.646790,597.820190 
z"/>
<path fill="#3C82F5" opacity="1.000000" stroke="none" 
	d="
M927.050171,525.575317 
	C932.075562,542.957458 937.080017,560.776794 941.965942,578.628601 
	C955.077026,626.532715 968.137451,674.450745 981.407776,722.657227 
	C985.101013,736.383545 988.795654,749.769348 992.066223,763.258057 
	C998.047729,787.927551 983.636658,814.039917 959.505615,821.981995 
	C949.784546,825.181458 939.773132,827.498535 929.498779,830.311279 
	C928.758728,801.088440 928.277283,771.772400 928.095642,742.454468 
	C927.648743,670.312561 927.339722,598.169800 927.050171,525.575317 
z"/>
<path fill="#F9CC16" opacity="1.000000" stroke="none" 
	d="
M600.925903,62.740990 
	C580.224670,75.284927 559.373718,87.585587 538.462952,99.783585 
	C514.092163,113.999916 489.669098,128.126511 465.133514,142.603790 
	C442.972961,143.238373 420.947571,143.561218 398.629211,143.569977 
	C412.283051,129.205475 426.276978,115.201408 440.162598,101.090790 
	C452.642578,88.408607 465.003693,75.609398 477.417206,62.861801 
	C486.371613,53.941555 495.314728,45.009972 504.282745,36.103447 
	C522.990356,17.524015 554.199341,17.236971 573.299500,35.561497 
	C582.542114,44.428711 591.605347,53.482807 600.925903,62.740990 
z"/>
<path fill="#23C55E" opacity="1.000000" stroke="none" 
	d="
M608.010681,1016.329773 
	C622.506897,1000.869751 637.224426,985.685181 652.035889,970.592834 
	C673.627136,948.592346 695.286011,926.658325 717.070190,904.392212 
	C734.187500,903.803467 751.150513,903.518555 768.456909,903.630066 
	C765.677551,909.483887 762.535278,914.930054 759.435486,920.400330 
	C747.614258,941.261719 735.806763,962.130798 723.994141,982.996948 
	C718.246338,992.876587 712.472412,1002.741089 706.755798,1012.638672 
	C691.470032,1039.104004 662.170898,1047.164307 635.550720,1032.171631 
	C626.435303,1027.037720 617.364929,1021.823792 608.010681,1016.329773 
z"/>
<path fill="#23C55E" opacity="1.000000" stroke="none" 
	d="
M60.111504,605.254028 
	C72.742386,617.067932 85.292397,629.168701 97.724411,641.389526 
	C120.234261,663.516907 142.673798,685.715759 165.408844,708.067749 
	C165.764435,726.321167 165.853882,744.391663 165.536469,762.826355 
	C164.546783,762.878967 163.956879,762.579834 163.382187,762.253967 
	C140.917892,749.513916 118.454964,736.771484 95.991898,724.029297 
	C84.242607,717.227234 72.487305,710.435608 60.745293,703.621033 
	C38.446041,690.679565 29.663900,660.965698 41.672615,638.057434 
	C47.437481,627.060120 53.855320,616.405151 60.111504,605.254028 
z"/>
<path fill="#23C55E" opacity="1.000000" stroke="none" 
	d="
M477.143616,62.547340 
	C465.003693,75.609398 452.642578,88.408607 440.162598,101.090790 
	C426.276978,115.201408 412.283051,129.205475 398.163025,143.516937 
	C373.651794,143.839661 349.313812,143.901306 324.631531,143.584549 
	C333.801971,126.461189 343.316711,109.716248 352.831482,92.971313 
	C359.157501,82.062500 365.414429,71.112907 371.824066,60.253448 
	C384.796631,38.274834 409.540833,29.126785 433.327911,38.166912 
	C441.009705,41.086315 447.999084,45.856449 455.242371,49.892712 
	C462.492462,53.932758 469.664032,58.113701 477.143616,62.547340 
z"/>
<path fill="#23C55E" opacity="1.000000" stroke="none" 
	d="
M1016.156982,471.032410 
	C995.350403,451.158997 974.796143,431.021423 954.239685,410.886047 
	C945.087646,401.921417 935.931152,392.961212 926.478394,383.832916 
	C925.903137,362.379120 925.626160,341.091370 925.769287,319.451538 
	C927.342102,319.753723 928.493958,320.409698 929.647766,321.062103 
	C947.401794,331.100189 965.156067,341.137817 982.910278,351.175537 
	C993.487915,357.350708 1004.065552,363.525970 1014.643311,369.701050 
	C1040.457397,384.771057 1048.518555,414.002625 1033.960815,440.149536 
	C1028.238281,450.427490 1022.266541,460.566742 1016.156982,471.032410 
z"/>
<path fill="#3C82F5" opacity="1.000000" stroke="none" 
	d="
M550.629883,142.639160 
	C589.827271,131.727936 629.473511,120.919945 669.112671,110.085823 
	C687.975098,104.930382 706.823975,99.725220 725.948975,94.275574 
	C734.871338,91.837624 743.576477,89.856209 752.166382,87.461716 
	C783.137146,78.828468 809.756409,93.760155 818.398010,124.756454 
	C819.818970,129.853348 821.221863,134.955276 822.758972,140.391006 
	C820.724243,140.799179 818.563904,140.923050 816.402954,140.935760 
	C740.451294,141.382431 664.499451,141.806992 588.547852,142.268021 
	C576.056763,142.343826 563.566528,142.573227 550.629883,142.639160 
z"/>
<path fill="#E5E7EB" opacity="1.000000" stroke="none" 
	d="
M724.339966,983.150391 
	C735.806763,962.130798 747.614258,941.261719 759.435486,920.400330 
	C762.535278,914.930054 765.677551,909.483887 768.918457,903.724182 
	C791.061707,903.292603 813.086914,903.163452 835.579346,903.111816 
	C833.088806,915.059875 830.360657,926.993896 827.102539,938.781372 
	C824.374634,948.650269 822.208435,958.935669 817.700256,967.994995 
	C809.211670,985.053406 794.172546,993.889160 775.334045,994.707947 
	C767.773193,995.036621 760.000610,992.608887 752.463867,990.841064 
	C743.128845,988.651489 733.938660,985.844299 724.339966,983.150391 
z"/>
<path fill="#E5E7EB" opacity="1.000000" stroke="none" 
	d="
M95.993744,724.439209 
	C118.454964,736.771484 140.917892,749.513916 163.382187,762.253967 
	C163.956879,762.579834 164.546783,762.878967 165.467682,763.318726 
	C165.960403,786.988281 166.115036,810.529663 166.175018,834.531677 
	C149.115631,830.519043 131.847961,826.940735 115.268486,821.329163 
	C97.484680,815.309998 85.343330,795.513123 84.880684,776.658508 
	C84.578949,764.361938 89.437668,753.333923 91.963104,741.735107 
	C93.194000,736.081787 94.644493,730.476257 95.993744,724.439209 
z"/>
<path fill="#E5E7EA" opacity="1.000000" stroke="none" 
	d="
M982.973511,350.780396 
	C965.156067,341.137817 947.401794,331.100189 929.647766,321.062103 
	C928.493958,320.409698 927.342102,319.753723 925.891663,318.992493 
	C925.422546,307.640228 925.180237,296.395447 925.098083,285.149475 
	C925.002502,272.070587 925.047058,258.990631 925.099365,245.445648 
	C937.167847,248.177826 949.310669,250.924927 961.134949,254.676178 
	C980.040710,260.674011 993.622314,280.395142 994.131165,300.080322 
	C994.471069,313.231232 989.084534,325.003448 986.639648,337.466583 
	C985.781738,341.840118 984.257019,346.082825 982.973511,350.780396 
z"/>
<path fill="#E5E7EA" opacity="1.000000" stroke="none" 
	d="
M352.448700,92.965088 
	C343.316711,109.716248 333.801971,126.461189 324.170166,143.520554 
	C299.662170,144.139969 275.271210,144.444977 250.417282,144.656677 
	C252.266296,136.291550 254.741379,128.061172 256.857880,119.739586 
	C261.974487,99.622238 278.954681,85.595940 299.467163,82.734383 
	C311.107178,81.110558 321.259460,85.348366 331.965302,87.585205 
	C338.743835,89.001480 345.370911,91.142746 352.448700,92.965088 
z"/>
<path fill="#FFFEFD" opacity="1.000000" stroke="none" 
	d="
M299.029266,507.139679 
	C290.183563,541.509033 281.442413,575.492188 272.636383,609.727417 
	C260.832245,609.727417 249.050522,609.727417 236.774612,609.727417 
	C224.551559,556.398438 212.299591,502.943237 199.949203,449.058655 
	C210.522629,449.058655 220.765045,449.058655 231.811188,449.058655 
	C239.880737,486.483398 248.024124,524.250610 256.167511,562.017822 
	C256.677002,562.155151 257.186493,562.292480 257.695984,562.429810 
	C258.427094,560.937622 259.442535,559.518433 259.846893,557.942444 
	C266.624542,531.526184 273.319183,505.088684 280.048004,478.659882 
	C282.304871,469.795746 284.741852,460.974243 286.804199,452.065582 
	C287.430664,449.359619 288.590698,448.585724 291.192078,448.639862 
	C297.853882,448.778473 304.525818,448.842682 311.182892,448.616943 
	C314.327148,448.510376 315.402527,449.709412 316.159119,452.658569 
	C325.002991,487.130615 334.003387,521.562500 342.964844,556.004333 
	C343.216064,556.969849 343.372864,557.985107 343.789734,558.876038 
	C344.299133,559.964783 345.037109,560.946594 345.676270,561.974609 
	C346.437347,560.875732 347.632477,559.871582 347.896088,558.664062 
	C354.671417,527.627075 361.348694,496.568756 368.045471,465.514648 
	C369.027222,460.962189 369.871185,456.371002 371.106903,451.888184 
	C371.446747,450.655365 372.951355,448.858734 373.959900,448.833099 
	C383.237579,448.597260 392.523712,448.694183 402.462280,448.694183 
	C390.098022,502.828033 377.894775,556.256958 365.620422,609.997131 
	C354.206451,609.997131 343.064362,610.114258 331.933258,609.817383 
	C330.809784,609.787415 329.180481,607.414490 328.750610,605.861816 
	C321.429382,579.418579 314.262207,552.932678 307.057098,526.457214 
	C305.441437,520.520508 303.905884,514.558411 302.083008,508.685669 
	C301.814240,507.819885 300.151550,507.386749 299.029266,507.139679 
z"/>
<path fill="#FFFEFD" opacity="1.000000" stroke="none" 
	d="
M448.348877,607.713928 
	C428.744415,599.691833 418.810760,584.593323 415.370972,564.786072 
	C412.886993,550.482544 413.428284,536.198425 418.316162,522.397644 
	C425.914825,500.943146 444.490936,487.351288 467.490631,486.107208 
	C479.083984,485.480103 490.494507,486.333466 501.145813,491.477692 
	C516.555115,498.919983 523.799500,512.089905 525.738403,528.376465 
	C526.617798,535.763611 525.953735,543.324280 526.230774,550.797241 
	C526.391052,555.120850 524.323242,556.108398 520.435364,556.089050 
	C497.451111,555.974854 474.466034,556.033142 451.481201,556.033386 
	C449.672943,556.033386 447.864685,556.033386 446.087646,556.033386 
	C444.906250,572.800293 455.876495,585.256348 472.063354,586.145569 
	C484.507050,586.829102 495.196594,584.036194 502.017181,572.384827 
	C502.549561,571.475342 505.400177,570.867981 506.387482,571.451050 
	C512.803467,575.239624 519.001892,579.396851 525.601379,583.645691 
	C518.239929,598.218201 507.253601,607.690613 491.510193,610.765686 
	C477.077271,613.584717 462.690796,612.992126 448.348877,607.713928 
M473.500000,536.147034 
	C481.275391,536.147034 489.050781,536.147034 496.778870,536.147034 
	C497.585449,520.410156 489.542877,510.561371 475.895630,509.905975 
	C458.604797,509.075623 447.490753,518.881042 446.557617,536.147095 
	C455.215088,536.147095 463.857544,536.147095 473.500000,536.147034 
z"/>
<path fill="#FFFEFD" opacity="1.000000" stroke="none" 
	d="
M587.170593,538.161682 
	C594.055481,536.572937 600.667908,535.495483 606.934326,533.388733 
	C613.863525,531.059204 615.984253,527.002869 615.097412,520.399963 
	C614.396851,515.183777 610.384216,511.797607 603.755493,511.018127 
	C588.865967,509.267303 576.244385,514.209717 565.398315,524.220703 
	C561.078491,528.208008 561.101685,528.245300 557.773987,523.234863 
	C554.379028,518.123291 550.999695,513.001465 547.499878,507.712341 
	C560.024780,494.220123 575.374084,487.145477 593.132751,486.325195 
	C602.304565,485.901550 611.873657,486.725372 620.754089,488.985931 
	C635.972778,492.859863 644.644348,505.294037 644.930908,521.758606 
	C645.229553,538.915771 645.058411,556.081116 645.078857,573.242920 
	C645.093811,585.729919 646.096252,586.679993 659.226501,585.667358 
	C659.884155,592.329407 660.640503,599.028259 661.090698,605.747681 
	C661.148071,606.603455 659.778992,608.048889 658.779907,608.404968 
	C648.848572,611.944824 638.674622,612.640320 629.246277,607.590454 
	C625.460266,605.562622 622.970642,601.033386 620.056030,597.506226 
	C619.101746,596.351440 618.668762,594.765930 617.810181,592.990234 
	C616.698486,593.894653 616.046692,594.188232 615.763062,594.689819 
	C606.022705,611.917603 590.163879,614.421631 572.943909,611.285522 
	C549.401672,606.998108 537.340576,581.270508 547.991333,559.666382 
	C551.231689,553.093567 556.388672,548.254089 563.022827,545.658020 
	C570.721802,542.645264 578.820435,540.653931 587.170593,538.161682 
M606.772156,553.420593 
	C602.895935,554.314148 598.980713,555.068115 595.153687,556.137817 
	C590.703369,557.381958 586.083496,558.402588 581.984192,560.425842 
	C576.444031,563.160217 574.942566,568.571838 575.167358,574.374573 
	C575.394592,580.239014 577.694275,585.016846 583.316895,587.629272 
	C594.627075,592.884277 608.654297,587.532776 613.448059,576.030579 
	C616.934631,567.664734 615.987122,558.928040 615.766113,550.432983 
	C615.070007,550.177795 614.877014,550.030396 614.764465,550.077087 
	C612.340210,551.081421 609.924927,552.107483 606.772156,553.420593 
z"/>
<path fill="#FFFEFD" opacity="1.000000" stroke="none" 
	d="
M748.763733,600.798523 
	C745.250244,610.004395 745.250244,610.004395 735.950806,610.004395 
	C727.957031,610.004395 719.959839,610.122314 711.972717,609.892151 
	C710.585876,609.852173 708.434326,608.642761 707.994385,607.465759 
	C693.329163,568.231567 678.828491,528.935974 664.320435,489.643097 
	C664.217651,489.364746 664.346436,489.000916 664.384094,488.410431 
	C674.775879,488.410431 685.176941,488.410431 695.910583,488.410431 
	C701.911072,505.591095 707.938904,522.842285 713.961060,540.095520 
	C717.630859,550.609619 721.254395,561.140259 725.006653,571.624817 
	C725.447327,572.856201 726.574280,573.841980 727.383057,574.941650 
	C728.182129,573.810791 729.291504,572.789246 729.734375,571.532837 
	C738.851135,545.667786 748.050598,519.829407 756.803528,493.840912 
	C758.396606,489.110840 760.597656,487.832520 765.247375,488.041748 
	C773.346375,488.406158 781.473633,488.143127 790.256104,488.143127 
	C776.325928,525.959839 762.609985,563.195007 748.763733,600.798523 
z"/>
<path fill="#FFFDFC" opacity="1.000000" stroke="none" 
	d="
M885.343445,498.495911 
	C884.291809,503.804688 883.139587,508.677856 882.473022,513.616516 
	C881.959351,517.422485 880.142212,517.527283 876.958374,516.878357 
	C872.764954,516.023743 868.394897,515.222412 864.170349,515.491211 
	C853.037781,516.199707 846.020630,522.634338 843.213806,533.150330 
	C841.728638,538.714539 841.013245,544.623718 840.916809,550.393311 
	C840.618835,568.218750 840.785095,586.051941 840.771545,603.882080 
	C840.770203,605.688843 840.771362,607.495667 840.771362,609.652100 
	C830.525330,609.652100 820.620239,609.652100 810.360474,609.652100 
	C810.360474,569.401978 810.360474,529.036011 810.360474,488.405823 
	C820.076782,488.405823 829.652771,488.405823 839.959167,488.405823 
	C839.959167,494.420166 839.959167,500.271698 839.959167,506.123230 
	C840.422241,506.268555 840.885376,506.413879 841.348450,506.559204 
	C842.273621,505.214172 843.291382,503.923004 844.109558,502.515747 
	C852.073853,488.817261 868.710754,483.222198 883.576782,488.968872 
	C889.441650,491.236023 885.101562,495.009827 885.343445,498.495911 
z"/>
<path fill="#F97418" opacity="1.000000" stroke="none" 
	d="
M473.000000,536.147095 
	C463.857544,536.147095 455.215088,536.147095 446.557617,536.147095 
	C447.490753,518.881042 458.604797,509.075623 475.895630,509.905975 
	C489.542877,510.561371 497.585449,520.410156 496.778870,536.147034 
	C489.050781,536.147034 481.275391,536.147034 473.000000,536.147095 
z"/>
<path fill="#F97519" opacity="1.000000" stroke="none" 
	d="
M607.140015,553.274963 
	C609.924927,552.107483 612.340210,551.081421 614.764465,550.077087 
	C614.877014,550.030396 615.070007,550.177795 615.766113,550.432983 
	C615.987122,558.928040 616.934631,567.664734 613.448059,576.030579 
	C608.654297,587.532776 594.627075,592.884277 583.316895,587.629272 
	C577.694275,585.016846 575.394592,580.239014 575.167358,574.374573 
	C574.942566,568.571838 576.444031,563.160217 581.984192,560.425842 
	C586.083496,558.402588 590.703369,557.381958 595.153687,556.137817 
	C598.980713,555.068115 602.895935,554.314148 607.140015,553.274963 
z"/>
</svg>